<svg width="25" height="25" viewBox="0 0 25 25" fill="none" xmlns="http://www.w3.org/2000/svg">
<path d="M12.3907 9.47009C13.1864 9.47009 13.9495 9.78616 14.5121 10.3488C15.0747 10.9114 15.3907 11.6744 15.3907 12.4701C15.3907 13.2657 15.0747 14.0288 14.5121 14.5914C13.9495 15.154 13.1864 15.4701 12.3907 15.4701C11.5951 15.4701 10.832 15.154 10.2694 14.5914C9.70682 14.0288 9.39075 13.2657 9.39075 12.4701C9.39075 11.6744 9.70682 10.9114 10.2694 10.3488C10.832 9.78616 11.5951 9.47009 12.3907 9.47009ZM12.3907 4.97009C17.3907 4.97009 21.6607 8.08009 23.3907 12.4701C21.6607 16.8601 17.3907 19.9701 12.3907 19.9701C7.39075 19.9701 3.12075 16.8601 1.39075 12.4701C3.12075 8.08009 7.39075 4.97009 12.3907 4.97009ZM3.57075 12.4701C4.379 14.1204 5.63405 15.5108 7.19323 16.4833C8.7524 17.4559 10.5531 17.9714 12.3907 17.9714C14.2284 17.9714 16.0291 17.4559 17.5883 16.4833C19.1474 15.5108 20.4025 14.1204 21.2107 12.4701C20.4025 10.8198 19.1474 9.42934 17.5883 8.45684C16.0291 7.48433 14.2284 6.96877 12.3907 6.96877C10.5531 6.96877 8.7524 7.48433 7.19323 8.45684C5.63405 9.42934 4.379 10.8198 3.57075 12.4701Z" fill="#C3C3C3"/>
</svg>
